<?xml version="1.0" encoding="utf-8"?>
<!-- Generator: Adobe Illustrator 21.0.2, SVG Export Plug-In . SVG Version: 6.00 Build 0)  -->
<svg version="1.1" id="Layer_1" xmlns="http://www.w3.org/2000/svg" xmlns:xlink="http://www.w3.org/1999/xlink" x="0px" y="0px"
	 viewBox="0 0 328 130" style="enable-background:new 0 0 328 130;" xml:space="preserve">
<g>
	<g>
		<path style="fill:#00ADEE;" d="M101.5,58.9c-0.9,0-1.5,0.3-1.9,1c-0.3,0.4-0.4,0.9-0.5,1.6l4.7,0c0-0.6-0.2-1.2-0.4-1.6
			C103,59.3,102.4,58.9,101.5,58.9z"/>
		<path style="fill:#00ADEE;" d="M84.8,63.3c-0.4,0.3-0.6,0.7-0.6,1.3c0,0.4,0.1,0.7,0.2,0.9c0.1,0.1,0.1,0.2,0.4,0.4
			c0,0,0.6,0.5,1.9,0.4c0.9-0.1,1.8-0.2,1.8-0.2v-3c0,0-0.8-0.1-1.8-0.2C85.4,62.8,84.8,63.3,84.8,63.3z"/>
		<path style="fill:#00ADEE;" d="M128.2,59c-0.9,0-1.5,0.3-1.9,0.9c-0.4,0.6-0.6,1.5-0.6,2.7c0,1.1,0.2,2,0.6,2.7
			c0.4,0.6,1,0.9,1.9,0.9c0.9,0,1.5-0.3,1.9-0.9c0.4-0.6,0.6-1.5,0.6-2.7c0-1.1-0.2-2-0.6-2.7C129.7,59.3,129,59,128.2,59z"/>
		<path style="fill:#00ADEE;" d="M146,35.8c-3.5,0-6.9,0.8-10,2.1c-3.5-6.2-10.1-10.5-17.6-10.5c-5.7,0-10.8,2.4-14.5,6.2
			C99.9,28.4,93.5,25,86.3,25C74,25,64.1,34.9,64.1,47.2c0,3.1,0.7,6.1,1.8,8.8c-5.7,3.3-9.5,9.6-9.5,16.7
			c0,10.6,8.5,19.3,19.1,19.3c1.3,0,2.7-0.1,3.9-0.4c2.9,7.9,10.4,13.5,19.3,13.5c8.5,0,15.8-5.2,18.9-12.5c2.4,1.2,5.1,1.8,7.9,1.8
			c6.8,0,12.6-3.7,15.7-9.2c1.6,0.3,3.2,0.5,4.9,0.5c13.6,0,24.6-11.1,24.6-24.9C170.7,47,159.7,35.8,146,35.8z M80.9,64.7
			c0,2-1.5,3.3-3.8,3.3c-1.2,0-2.3-0.2-3.4-0.8c-0.2-0.1-0.4-0.2-0.7-0.4c0,0-0.1-0.1,0-0.3l0.5-1.3c0.1-0.2,0.2-0.1,0.3-0.1
			c0.1,0.1,0.2,0.1,0.4,0.2c1.4,0.9,2.6,0.9,3,0.9c1,0,1.7-0.5,1.7-1.3v0c0-0.8-1-1.1-2.1-1.4l-0.2-0.1c-1.5-0.4-3.2-1.1-3.2-3v0
			c0-1.9,1.5-3.2,3.6-3.2l0.2,0c1.3,0,2.5,0.4,3.4,0.9c0.1,0,0.2,0.1,0.1,0.3c0,0.1-0.4,1.2-0.5,1.3c-0.1,0.2-0.3,0.1-0.3,0.1
			c-0.8-0.4-2-0.8-3-0.8c-0.9,0-1.5,0.5-1.5,1.1v0c0,0.8,1,1.1,2.2,1.5l0.2,0.1C79.2,62.1,80.9,62.8,80.9,64.7L80.9,64.7z
			 M90.5,67.3c0,0-0.2,0.1-0.5,0.1c-0.2,0.1-1,0.2-1.7,0.3c-0.7,0.1-1.3,0.2-2,0.2c-0.6,0-1.2-0.1-1.8-0.2c-0.5-0.1-1-0.3-1.3-0.6
			c-0.4-0.3-0.7-0.6-0.9-1c-0.2-0.4-0.3-0.9-0.3-1.5c0-0.6,0.1-1.1,0.4-1.5c0.2-0.4,0.6-0.8,1-1.1c0.4-0.3,0.9-0.5,1.4-0.6
			c0.5-0.1,1.1-0.2,1.6-0.2c0.4,0,0.8,0,1,0c0,0,0.5,0,1.1,0.1V61c0-0.9-0.2-1.3-0.5-1.6C87.6,59.1,87,59,86.3,59c0,0-1.6,0-2.9,0.7
			c-0.1,0-0.1,0.1-0.1,0.1s-0.2,0.1-0.2-0.1l-0.5-1.3c-0.1-0.2,0.1-0.3,0.1-0.3c0.6-0.5,2-0.7,2-0.7c0.5-0.1,1.3-0.2,1.8-0.2
			c1.3,0,2.3,0.3,3,0.9c0.7,0.6,1.1,1.6,1.1,2.9l0,6.1C90.6,67.1,90.6,67.3,90.5,67.3z M94.9,67.5c0,0.1-0.1,0.2-0.2,0.2H93
			c-0.1,0-0.2-0.1-0.2-0.2V53.3c0-0.1,0.1-0.2,0.2-0.2h1.8c0.1,0,0.2,0.1,0.2,0.2V67.5z M105.9,62.9c0,0.2-0.2,0.2-0.2,0.2l-6.6,0
			c0,1,0.3,1.7,0.8,2.2c0.5,0.5,1.2,0.8,2.3,0.8c1.6,0,2.2-0.3,2.7-0.5c0,0,0.2-0.1,0.2,0.1l0.4,1.2c0.1,0.2,0,0.3-0.1,0.3
			c-0.4,0.2-1.4,0.7-3.3,0.7c-0.9,0-1.7-0.1-2.4-0.4c-0.7-0.3-1.2-0.6-1.7-1.1c-0.4-0.5-0.8-1-1-1.7c-0.2-0.6-0.3-1.4-0.3-2.1
			c0-0.8,0.1-1.5,0.3-2.1c0.2-0.7,0.5-1.2,0.9-1.7c0.4-0.5,0.9-0.9,1.5-1.2c0.6-0.3,1.4-0.4,2.2-0.4c0.7,0,1.4,0.2,1.9,0.4
			c0.4,0.2,0.8,0.5,1.3,1c0.3,0.3,0.7,0.9,0.8,1.6C106.1,61.6,105.9,62.9,105.9,62.9z M111.4,67.9c-1.2,0-2.3-0.2-3.4-0.8
			c-0.2-0.1-0.4-0.2-0.7-0.4c0,0-0.1-0.1,0-0.3l0.5-1.3c0.1-0.2,0.3-0.1,0.3-0.1c0.1,0.1,0.2,0.1,0.4,0.2c1.4,0.9,2.6,0.9,3,0.9
			c1,0,1.7-0.5,1.7-1.3v0c0-0.8-1-1.1-2.1-1.4l-0.2-0.1c-1.5-0.4-3.2-1.1-3.2-3v0c0-1.9,1.5-3.2,3.6-3.2l0.2,0
			c1.3,0,2.5,0.4,3.4,0.9c0.1,0,0.2,0.1,0.1,0.3c0,0.1-0.4,1.2-0.5,1.3c-0.1,0.2-0.3,0.1-0.3,0.1c-0.8-0.4-2-0.8-3-0.8
			c-0.9,0-1.5,0.5-1.5,1.1v0c0,0.8,1,1.1,2.2,1.5l0.2,0.1c1.5,0.5,3.2,1.2,3.2,3v0C115.2,66.7,113.7,67.9,111.4,67.9z M123,59
			c0,0.2-0.2,0.2-0.2,0.2h-2.2l-1.5,8.4c-0.2,0.9-0.4,1.6-0.6,2.2c-0.2,0.6-0.5,1.1-0.9,1.5c-0.4,0.4-0.8,0.7-1.2,0.9
			c-0.5,0.2-1,0.3-1.6,0.3c-0.3,0-0.6,0-1-0.1c-0.3-0.1-0.4-0.1-0.6-0.2c-0.1,0-0.1-0.1-0.1-0.3c0-0.1,0.4-1.2,0.5-1.3
			c0.1-0.2,0.2-0.1,0.2-0.1c0.1,0,0.2,0.1,0.4,0.1c0.2,0,0.4,0.1,0.5,0.1c0.3,0,0.6,0,0.8-0.1c0.3-0.1,0.4-0.3,0.6-0.5
			c0.2-0.2,0.3-0.5,0.5-0.9c0.1-0.4,0.3-1,0.4-1.6l1.5-8.3H117c-0.2,0-0.2-0.1-0.2-0.2l0.2-1.4c0-0.2,0.2-0.2,0.2-0.2h1.5l0.1-0.4
			c0.2-1.3,0.7-2.3,1.3-3c0.7-0.7,1.6-1,2.8-1c0.3,0,0.6,0,0.9,0.1c0.3,0,0.4,0.1,0.7,0.2c0,0,0.2,0.1,0.1,0.2l-0.5,1.4
			c0,0.1-0.1,0.2-0.3,0.1c-0.1,0-0.1,0-0.3-0.1c-0.1,0-0.3-0.1-0.5-0.1c-0.3,0-0.5,0-0.7,0.1c-0.2,0.1-0.4,0.2-0.6,0.3
			c-0.2,0.2-0.4,0.4-0.5,0.7c-0.2,0.7-0.3,1.4-0.3,1.5h2.1c0.2,0,0.2,0.1,0.2,0.2L123,59z M132.7,64.7c-0.2,0.7-0.5,1.2-0.9,1.7
			c-0.4,0.5-0.9,0.9-1.5,1.1c-0.6,0.3-1.3,0.4-2.1,0.4c-0.8,0-1.5-0.1-2.1-0.4c-0.6-0.3-1.1-0.7-1.5-1.1c-0.4-0.5-0.7-1.1-0.9-1.7
			c-0.2-0.6-0.3-1.4-0.3-2.1c0-0.7,0.1-1.5,0.3-2.1c0.2-0.6,0.5-1.2,0.9-1.7c0.4-0.5,0.9-0.9,1.5-1.1c0.6-0.3,1.3-0.4,2.1-0.4
			c0.8,0,1.5,0.1,2.1,0.4c0.6,0.3,1.1,0.7,1.5,1.1c0.4,0.5,0.7,1,0.9,1.7c0.2,0.6,0.3,1.4,0.3,2.1C132.9,63.3,132.8,64,132.7,64.7z
			 M140.8,57.7c-0.1,0.2-0.4,1.1-0.5,1.4c0,0.1-0.1,0.2-0.2,0.2c0,0-0.4-0.1-0.7-0.1c-0.2,0-0.6,0-0.9,0.1c-0.3,0.1-0.6,0.3-0.8,0.5
			c-0.2,0.2-0.4,0.6-0.6,1c-0.1,0.4-0.2,1.1-0.2,1.7v4.9c0,0.1-0.1,0.2-0.2,0.2h-1.7c-0.1,0-0.2-0.1-0.2-0.2v-9.9
			c0-0.1,0.1-0.2,0.2-0.2h1.7c0.1,0,0.2,0.1,0.2,0.2l0,0.8c0.3-0.3,0.7-0.6,1.1-0.8c0.4-0.2,0.9-0.3,1.7-0.3c0.4,0,1,0.1,1.1,0.2
			C140.8,57.5,140.9,57.6,140.8,57.7z M149.1,67.4c-0.7,0.3-1.8,0.5-2.8,0.5c-1.7,0-3-0.5-3.9-1.5c-0.9-1-1.3-2.3-1.3-3.9
			c0-0.8,0.1-1.5,0.3-2.1c0.2-0.6,0.5-1.2,1-1.7c0.4-0.5,1-0.9,1.6-1.1c0.6-0.3,1.4-0.4,2.2-0.4c0.6,0,1,0,1.5,0.1
			c0.5,0.1,1.1,0.2,1.3,0.3c0,0,0.2,0.1,0.1,0.2c-0.2,0.5-0.3,0.9-0.5,1.3c-0.1,0.2-0.2,0.1-0.2,0.1c-0.6-0.2-1.3-0.3-2.1-0.3
			c-1,0-1.7,0.3-2.2,1c-0.5,0.6-0.7,1.5-0.8,2.6c0,1.2,0.3,2.1,0.8,2.7c0.5,0.6,1.3,0.8,2.2,0.8c0.4,0,0.7,0,1.1-0.1
			c0.3-0.1,0.6-0.1,0.9-0.3c0,0,0.2-0.1,0.3,0.1l0.5,1.3C149.3,67.3,149.1,67.4,149.1,67.4z M158.9,62.9c0,0.2-0.2,0.2-0.2,0.2
			l-6.6,0c0,1,0.3,1.7,0.8,2.2c0.5,0.5,1.2,0.8,2.3,0.8c1.6,0,2.2-0.3,2.7-0.5c0,0,0.2-0.1,0.2,0.1l0.4,1.2c0.1,0.2,0,0.3-0.1,0.3
			c-0.4,0.2-1.4,0.7-3.3,0.7c-0.9,0-1.7-0.1-2.4-0.4c-0.7-0.3-1.2-0.6-1.7-1.1c-0.4-0.5-0.8-1-1-1.7c-0.2-0.6-0.3-1.4-0.3-2.1
			c0-0.8,0.1-1.5,0.3-2.1c0.2-0.7,0.5-1.2,0.9-1.7c0.4-0.5,0.9-0.9,1.5-1.2c0.6-0.3,1.4-0.4,2.2-0.4c0.7,0,1.4,0.2,1.9,0.4
			c0.4,0.2,0.8,0.5,1.3,1c0.3,0.3,0.7,0.9,0.8,1.6C159.2,61.6,158.9,62.9,158.9,62.9z"/>
		<path style="fill:#00ADEE;" d="M154.6,58.9c-0.9,0-1.5,0.3-1.9,1c-0.3,0.4-0.4,0.9-0.5,1.6l4.7,0c0-0.6-0.2-1.2-0.4-1.6
			C156,59.3,155.5,58.9,154.6,58.9z"/>
	</g>
	<g>
		<path style="fill:#939598;" d="M184.8,52c0.9,0,1.8,0.1,2.7,0.4c0.9,0.3,1.6,0.7,2.3,1.2l-1,1.7c-1.1-0.8-2.5-1.3-4-1.3
			c-1.6,0-2.8,0.5-3.7,1.6c-0.8,1.1-1.2,2.5-1.2,4.2c0,1.7,0.4,3.1,1.2,4.2c0.8,1.1,2,1.6,3.6,1.6c1.4,0,2.7-0.4,4-1.3l0.9,1.8
			c-1.5,1.1-3.2,1.6-5.1,1.6c-1.7,0-3.1-0.4-4.2-1.1c-1.1-0.8-1.9-1.7-2.3-2.9c-0.5-1.2-0.7-2.5-0.7-3.9c0-2.4,0.7-4.3,2-5.8
			C180.7,52.7,182.5,52,184.8,52z"/>
		<path style="fill:#939598;" d="M193.3,46.5h2.5v8h0.1c0.5-0.7,1.2-1.4,2-1.8c0.8-0.5,1.9-0.7,3.1-0.7c1.9,0,3.3,0.5,4.2,1.6
			s1.4,2.5,1.4,4.1v9.7h-2.5v-9.2c0-1.2-0.3-2.2-0.9-3c-0.6-0.8-1.5-1.2-2.9-1.2c-1.4,0-2.4,0.4-3.3,1.3c-0.8,0.9-1.2,2-1.2,3.4v8.6
			h-2.5V46.5z"/>
		<path style="fill:#939598;" d="M209.9,63.3c0-2,0.7-3.3,2.1-4.1s3.5-1.1,6.4-1.1c0.7,0,1.2,0,1.6,0v-0.9c0-1.1-0.3-2-0.9-2.5
			c-0.6-0.6-1.5-0.8-2.8-0.8c-1.6,0-3.1,0.4-4.5,1.3l-0.9-1.7c1.7-1,3.5-1.6,5.6-1.6c2.1,0,3.7,0.5,4.6,1.5c1,1,1.5,2.5,1.5,4.5v6.1
			c0,1.1,0.1,2.2,0.2,3.3h-2.3c-0.1-0.9-0.2-1.5-0.2-2h-0.1c-0.6,0.8-1.2,1.4-2.1,1.8c-0.8,0.4-1.9,0.6-3.2,0.6
			c-1.5,0-2.6-0.4-3.5-1.2C210.3,65.9,209.9,64.8,209.9,63.3z M219.9,61.9v-2l-1.3,0c-1.5,0-2.7,0.1-3.5,0.3c-0.9,0.2-1.5,0.5-2,1
			c-0.4,0.5-0.6,1.1-0.6,2c0,0.9,0.3,1.5,0.8,2c0.5,0.5,1.2,0.7,2.1,0.7c0.9,0,1.8-0.2,2.5-0.6c0.7-0.4,1.2-0.9,1.6-1.5
			C219.8,63.1,219.9,62.5,219.9,61.9z"/>
		<path style="fill:#939598;" d="M229.2,52.4h4v1.9h-4v9.1c0,1.6,0.7,2.4,2.2,2.4c0.5,0,1-0.1,1.5-0.2l0.4,1.9
			c-0.7,0.3-1.4,0.4-2.3,0.4c-1.3,0-2.4-0.4-3.1-1.1c-0.8-0.7-1.1-1.8-1.1-3.1v-9.3H224v-1.6l2.6-0.3v-3.7l2.5-0.9V52.4z"/>
		<path style="fill:#939598;" d="M240.8,52.4h4v1.9h-4v9.1c0,1.6,0.7,2.4,2.2,2.4c0.5,0,1-0.1,1.5-0.2l0.4,1.9
			c-0.7,0.3-1.4,0.4-2.3,0.4c-1.3,0-2.4-0.4-3.1-1.1c-0.8-0.7-1.1-1.8-1.1-3.1v-9.3h-2.7v-1.6l2.6-0.3v-3.7l2.5-0.9V52.4z"/>
		<path style="fill:#939598;" d="M260.5,60.8h-11.2c0.1,1.5,0.6,2.8,1.4,3.7c0.8,0.9,2,1.4,3.5,1.4c0.9,0,1.7-0.1,2.4-0.4
			c0.7-0.2,1.4-0.6,2.2-1.1L260,66c-0.8,0.6-1.7,1.1-2.7,1.4c-1,0.3-2,0.5-3.2,0.5c-2.3,0-4.1-0.7-5.4-2.2c-1.3-1.5-1.9-3.4-1.9-5.8
			c0-1.6,0.3-2.9,0.8-4.1s1.4-2.1,2.4-2.8c1.1-0.7,2.3-1,3.8-1c2.2,0,3.9,0.7,5,2.1c1.2,1.4,1.7,3.3,1.7,5.6
			C260.6,60.2,260.6,60.6,260.5,60.8z M258.1,58.9c0-1.5-0.4-2.7-1.2-3.6c-0.7-0.9-1.8-1.4-3.2-1.4c-1.4,0-2.5,0.5-3.3,1.4
			c-0.8,0.9-1.2,2.1-1.2,3.6H258.1z"/>
		<path style="fill:#939598;" d="M263.6,55.8c0-1.1-0.1-2.2-0.2-3.4h2.4c0.1,0.7,0.2,1.5,0.2,2.4h0.1c0.9-1.9,2.4-2.8,4.7-2.8
			c0.2,0,0.4,0,0.9,0.1l-0.1,2.2c-0.2,0-0.5-0.1-0.9-0.1c-1.4,0-2.5,0.5-3.3,1.4c-0.8,1-1.2,2.2-1.2,3.8v8.1h-2.5V55.8z"/>
	</g>
</g>
</svg>
