<svg id="svg" xmlns="http://www.w3.org/2000/svg" xmlns:xlink="http://www.w3.org/1999/xlink" width="400" height="89.55223880597015" viewBox="0, 0, 400,89.55223880597015"><g id="svgg"><path id="path0" d="M26.639 23.958 C 26.608 24.027,26.283 24.248,25.917 24.448 C 24.050 25.470,24.400 34.285,26.344 35.214 C 26.901 35.480,28.651 35.500,51.761 35.500 C 79.909 35.500,77.809 35.603,78.159 34.210 C 78.258 33.820,78.412 33.500,78.502 33.500 C 78.676 33.500,78.739 25.869,78.570 25.240 C 78.510 25.018,78.078 24.708,77.351 24.365 L 76.224 23.833 51.459 23.833 C 37.839 23.833,26.669 23.890,26.639 23.958 M32.567 42.684 C 32.273 43.009,32.247 43.384,32.206 47.892 L 32.163 52.750 32.579 53.250 L 32.996 53.750 54.811 53.796 L 76.626 53.842 77.553 53.296 C 78.063 52.996,78.521 52.600,78.571 52.417 C 78.736 51.814,78.675 44.358,78.505 44.253 C 78.415 44.198,78.267 43.873,78.175 43.531 C 77.826 42.236,79.718 42.333,54.958 42.333 L 32.885 42.333 32.567 42.684 M33.750 60.976 C 32.257 61.505,32.173 61.810,32.169 66.663 C 32.166 71.137,32.383 72.340,33.234 72.568 C 33.426 72.620,43.271 72.663,55.112 72.664 L 76.640 72.667 77.653 71.653 L 78.667 70.640 78.667 66.586 L 78.667 62.533 78.096 62.196 C 77.782 62.011,77.389 61.647,77.224 61.388 C 77.059 61.129,76.848 60.862,76.754 60.794 C 76.329 60.489,34.627 60.665,33.750 60.976 " stroke="none" fill="#9f0bfc" fill-rule="evenodd"></path><path id="path1" d="M163.603 11.470 C 162.416 11.751,162.500 9.596,162.500 39.833 C 162.500 65.906,162.512 66.944,162.809 67.499 C 163.217 68.259,163.775 68.372,166.774 68.302 C 170.168 68.222,169.821 69.272,169.828 59.059 C 169.833 51.596,169.862 50.692,170.097 50.601 C 170.478 50.455,180.046 50.481,180.278 50.629 C 180.386 50.697,180.527 50.978,180.593 51.252 C 180.758 51.939,180.931 52.119,181.638 52.343 C 182.348 52.568,182.667 52.909,182.667 53.443 C 182.667 53.831,183.009 54.102,183.913 54.430 C 184.281 54.564,184.437 54.751,184.520 55.157 C 184.661 55.844,184.913 56.096,185.747 56.385 C 186.290 56.573,186.429 56.712,186.521 57.159 C 186.661 57.844,186.913 58.096,187.747 58.385 C 188.285 58.571,188.430 58.714,188.518 59.145 C 188.645 59.764,189.231 60.333,189.742 60.333 C 190.199 60.333,190.500 60.635,190.500 61.091 C 190.500 61.607,191.071 62.189,191.704 62.318 L 192.250 62.429 192.336 63.851 C 192.433 65.455,192.735 66.102,193.460 66.261 C 194.255 66.435,194.300 66.468,194.407 66.947 C 194.465 67.205,194.655 67.604,194.830 67.833 L 195.148 68.250 200.055 68.250 L 204.962 68.250 205.314 67.833 C 206.369 66.581,205.453 65.139,203.540 65.042 C 201.817 64.954,201.667 64.899,201.667 64.356 C 201.667 63.814,201.337 63.471,200.476 63.116 L 199.869 62.865 199.809 61.450 C 199.742 59.837,199.523 59.453,198.493 59.145 C 197.978 58.991,197.841 58.851,197.680 58.312 C 197.479 57.641,197.062 57.266,196.314 57.082 C 195.989 57.002,195.829 56.810,195.682 56.320 C 195.479 55.640,195.064 55.266,194.306 55.080 C 194.009 55.007,193.826 54.824,193.753 54.527 C 193.567 53.768,193.193 53.355,192.509 53.150 C 191.992 52.995,191.827 52.851,191.746 52.484 C 191.584 51.743,191.041 51.167,190.506 51.167 C 190.109 51.167,189.993 51.057,189.754 50.458 C 189.377 49.511,189.040 49.167,188.492 49.167 C 188.111 49.167,187.990 49.050,187.754 48.458 C 187.377 47.511,187.040 47.167,186.492 47.167 C 185.960 47.167,185.688 46.707,186.128 46.552 C 187.326 46.131,187.465 46.021,187.702 45.310 C 187.912 44.681,188.028 44.564,188.597 44.410 C 189.158 44.259,189.307 44.113,189.654 43.374 C 189.979 42.681,190.157 42.493,190.570 42.404 C 191.262 42.257,191.449 42.081,191.677 41.362 C 191.899 40.657,192.242 40.333,192.763 40.333 C 193.156 40.333,193.584 39.803,193.762 39.096 C 193.881 38.622,194.280 38.333,194.817 38.333 C 195.163 38.333,195.446 37.962,195.763 37.087 C 195.897 36.719,196.084 36.563,196.490 36.480 C 197.177 36.339,197.429 36.087,197.718 35.253 C 197.906 34.710,198.045 34.571,198.492 34.479 C 199.177 34.339,199.430 34.087,199.718 33.253 C 199.905 32.715,200.047 32.570,200.479 32.482 C 201.098 32.355,201.667 31.769,201.667 31.258 C 201.667 30.801,201.968 30.500,202.424 30.500 C 202.936 30.500,203.522 29.931,203.649 29.312 C 203.737 28.879,203.880 28.739,204.420 28.556 C 205.295 28.259,205.667 27.786,205.667 26.971 C 205.667 25.371,205.143 25.167,201.047 25.167 C 197.342 25.167,196.909 25.289,196.508 26.449 C 196.332 26.960,196.153 27.175,195.842 27.252 C 195.101 27.433,194.686 27.812,194.483 28.491 C 194.328 29.008,194.184 29.173,193.817 29.254 C 193.129 29.405,192.541 29.934,192.413 30.517 C 192.328 30.904,192.149 31.093,191.692 31.282 C 190.835 31.636,190.500 31.980,190.500 32.508 C 190.500 32.889,190.384 33.010,189.792 33.246 C 188.845 33.623,188.500 33.960,188.500 34.508 C 188.500 34.889,188.384 35.010,187.792 35.246 C 186.848 35.622,186.500 35.959,186.500 36.499 C 186.500 36.957,185.988 37.333,185.366 37.333 C 185.039 37.333,184.623 37.891,184.499 38.494 C 184.424 38.862,184.211 39.024,183.178 39.496 C 183.046 39.556,182.890 39.713,182.830 39.844 C 182.349 40.896,182.190 41.099,181.728 41.250 C 181.065 41.467,180.667 41.805,180.667 42.150 C 180.667 43.152,180.590 43.167,175.191 43.167 C 171.557 43.167,170.180 43.113,170.033 42.967 C 169.881 42.814,169.832 39.147,169.828 27.508 C 169.821 9.232,170.260 11.430,166.606 11.386 C 165.219 11.369,163.867 11.407,163.603 11.470 M372.708 12.401 C 372.165 12.974,372.132 16.966,372.667 17.500 C 373.201 18.034,377.192 18.002,377.765 17.458 C 378.409 16.848,378.375 13.152,377.719 12.467 C 377.072 11.792,373.333 11.743,372.708 12.401 M168.606 12.592 L 169.000 13.017 169.000 28.068 L 169.000 43.118 169.409 43.559 L 169.817 44.000 175.086 44.000 C 180.821 44.000,180.789 44.005,181.342 43.019 C 181.542 42.664,181.998 42.209,182.355 42.008 C 182.712 41.807,183.125 41.405,183.273 41.113 C 183.601 40.468,183.993 40.078,184.463 39.928 C 184.658 39.867,184.984 39.539,185.188 39.200 C 185.651 38.430,186.009 38.073,186.463 37.928 C 186.658 37.867,186.987 37.541,187.194 37.206 C 187.672 36.433,188.043 36.062,188.475 35.925 C 188.663 35.865,188.987 35.541,189.194 35.206 C 189.672 34.433,190.043 34.062,190.475 33.925 C 190.663 33.865,190.988 33.539,191.197 33.200 C 191.720 32.352,192.037 32.000,192.280 32.000 C 192.523 32.000,193.333 31.164,193.333 30.914 C 193.333 30.687,193.973 30.132,194.500 29.900 C 194.729 29.800,195.029 29.502,195.167 29.239 C 195.468 28.663,195.787 28.339,196.410 27.981 C 196.667 27.832,196.999 27.501,197.147 27.243 C 197.777 26.149,197.715 26.167,201.031 26.167 C 203.916 26.167,204.080 26.184,204.449 26.530 L 204.835 26.893 204.472 27.280 C 204.272 27.493,204.027 27.667,203.927 27.667 C 203.828 27.667,203.560 27.901,203.332 28.186 C 202.280 29.503,202.122 29.667,201.902 29.667 C 201.772 29.667,201.667 29.742,201.667 29.833 C 201.667 29.925,201.554 30.000,201.417 30.000 C 201.279 30.000,201.167 30.113,201.167 30.250 C 201.167 30.387,201.092 30.500,201.000 30.500 C 200.908 30.500,200.833 30.606,200.833 30.735 C 200.833 30.956,200.670 31.113,199.353 32.165 C 199.067 32.393,198.833 32.668,198.833 32.775 C 198.833 32.958,198.657 33.124,197.353 34.165 C 197.067 34.393,196.833 34.668,196.833 34.775 C 196.833 34.958,196.657 35.124,195.353 36.165 C 195.067 36.393,194.833 36.668,194.833 36.775 C 194.833 37.023,193.880 37.833,193.588 37.833 C 193.468 37.833,193.323 37.927,193.266 38.042 C 192.883 38.816,192.467 39.312,191.851 39.727 C 191.463 39.989,191.082 40.364,191.007 40.560 C 190.856 40.950,190.341 41.445,189.618 41.895 C 189.361 42.054,189.088 42.349,189.010 42.550 C 188.856 42.950,188.346 43.442,187.616 43.896 C 187.359 44.055,187.104 44.313,187.050 44.468 C 186.921 44.837,186.151 45.667,185.938 45.667 C 185.612 45.667,185.000 46.398,185.000 46.787 C 185.000 47.143,185.706 48.000,186.000 48.000 C 186.222 48.000,186.961 48.781,187.072 49.132 C 187.134 49.325,187.459 49.653,187.794 49.861 C 188.567 50.338,188.938 50.709,189.075 51.142 C 189.135 51.330,189.461 51.654,189.800 51.863 C 190.648 52.386,191.000 52.704,191.000 52.947 C 191.000 53.165,191.825 54.000,192.040 54.000 C 192.222 54.000,192.706 54.532,193.019 55.077 C 193.168 55.334,193.499 55.666,193.757 55.814 C 194.348 56.154,194.679 56.485,195.019 57.077 C 195.168 57.334,195.499 57.666,195.757 57.814 C 196.380 58.173,196.699 58.496,197.000 59.072 C 197.137 59.336,197.438 59.633,197.667 59.734 C 198.644 60.163,198.833 60.489,198.833 61.747 C 198.833 62.913,199.281 63.833,199.848 63.833 C 200.033 63.833,200.833 64.645,200.833 64.833 C 200.833 65.404,201.693 65.833,202.833 65.833 C 203.903 65.833,204.056 65.876,204.431 66.281 L 204.846 66.729 204.430 67.115 C 203.409 68.061,195.333 67.599,195.333 66.594 C 195.333 66.495,195.099 66.226,194.814 65.998 C 193.212 64.720,193.333 64.915,193.333 63.608 C 193.333 62.470,193.309 62.393,192.814 61.998 C 191.497 60.947,191.333 60.789,191.333 60.569 C 191.333 60.439,191.258 60.333,191.167 60.333 C 191.075 60.333,191.000 60.221,191.000 60.083 C 191.000 59.946,190.887 59.833,190.750 59.833 C 190.612 59.833,190.500 59.758,190.500 59.667 C 190.500 59.575,190.394 59.500,190.265 59.500 C 190.044 59.500,189.887 59.337,188.835 58.020 C 188.607 57.734,188.332 57.500,188.225 57.500 C 188.042 57.500,187.876 57.324,186.835 56.020 C 186.607 55.734,186.329 55.500,186.217 55.500 C 186.106 55.500,185.805 55.229,185.549 54.897 C 184.892 54.046,184.466 53.612,184.082 53.401 C 183.899 53.301,183.535 52.902,183.273 52.515 C 183.011 52.128,182.629 51.747,182.425 51.670 C 182.074 51.536,181.628 51.059,180.951 50.094 L 180.651 49.667 175.234 49.667 L 169.817 49.667 169.409 50.108 L 169.000 50.549 169.000 58.661 L 169.000 66.773 168.582 67.137 C 167.951 67.686,164.470 67.686,163.886 67.138 L 163.500 66.775 163.500 39.857 L 163.500 12.938 163.862 12.552 C 164.443 11.934,168.024 11.964,168.606 12.592 M121.728 25.407 C 121.132 25.666,120.988 25.854,120.845 26.553 C 120.764 26.949,120.606 27.100,120.080 27.282 C 119.246 27.570,118.994 27.823,118.854 28.508 C 118.763 28.953,118.623 29.094,118.091 29.278 C 116.739 29.746,116.833 29.101,116.833 37.833 C 116.833 46.574,116.727 45.864,118.125 46.421 C 118.717 46.657,118.833 46.778,118.833 47.159 C 118.833 47.706,119.178 48.044,120.116 48.417 C 120.699 48.649,120.823 48.780,120.866 49.206 C 120.994 50.488,119.956 50.406,137.220 50.503 C 145.670 50.550,152.602 50.607,152.625 50.628 C 152.648 50.649,152.667 52.953,152.667 55.747 L 152.667 60.827 152.292 60.918 C 152.085 60.968,145.692 60.988,138.083 60.963 L 124.250 60.917 124.142 59.583 C 123.943 57.122,123.772 57.000,120.511 57.000 C 116.888 57.000,116.833 57.057,116.833 60.815 C 116.833 63.732,117.042 64.333,118.058 64.333 C 118.537 64.333,118.833 64.630,118.833 65.109 C 118.833 65.594,119.573 66.333,120.058 66.333 C 120.523 66.333,120.832 66.626,120.839 67.075 C 120.842 67.263,121.000 67.604,121.191 67.833 L 121.537 68.250 137.939 68.296 C 156.311 68.347,155.259 68.411,155.824 67.204 C 156.164 66.475,156.302 66.333,156.673 66.333 C 157.207 66.333,157.546 65.983,157.921 65.042 C 158.118 64.546,158.301 64.333,158.529 64.333 C 159.939 64.333,160.000 63.980,160.000 55.750 C 160.000 47.520,159.939 47.167,158.529 47.167 C 158.301 47.167,158.118 46.954,157.921 46.458 C 157.546 45.517,157.207 45.167,156.673 45.167 C 156.302 45.167,156.164 45.025,155.824 44.294 C 155.276 43.118,156.517 43.202,139.476 43.183 C 125.864 43.168,124.359 43.141,124.268 42.903 C 124.136 42.559,124.136 33.108,124.268 32.764 C 124.401 32.417,152.121 32.354,152.467 32.700 C 152.590 32.823,152.667 33.428,152.667 34.276 C 152.667 36.430,152.777 36.500,156.185 36.500 C 159.949 36.500,160.002 36.449,159.998 32.797 C 159.995 30.200,159.888 29.896,158.798 29.375 C 158.156 29.068,157.979 28.884,157.822 28.362 C 157.561 27.490,157.150 27.279,155.500 27.174 L 154.083 27.083 153.839 26.377 C 153.395 25.091,154.419 25.166,137.391 25.173 C 124.991 25.179,122.156 25.221,121.728 25.407 M213.167 25.476 C 212.770 25.689,212.558 25.942,212.488 26.283 C 212.347 26.971,212.235 27.113,211.734 27.239 C 211.055 27.410,210.500 27.840,210.500 28.197 C 210.500 28.733,210.197 29.133,209.710 29.243 C 209.457 29.299,209.063 29.489,208.833 29.663 L 208.417 29.981 208.417 46.805 L 208.417 63.629 208.833 63.976 C 209.063 64.166,209.414 64.325,209.616 64.328 C 210.022 64.334,210.500 64.906,210.500 65.385 C 210.500 65.781,211.139 66.321,211.616 66.328 C 212.007 66.334,212.500 66.900,212.500 67.345 C 212.500 68.297,211.470 68.246,231.525 68.295 C 251.218 68.342,250.769 68.361,251.208 67.493 C 251.588 66.741,251.631 62.802,251.268 61.934 C 250.866 60.972,251.419 61.000,233.072 61.000 C 223.789 61.000,216.075 60.954,215.930 60.899 C 215.530 60.745,215.530 50.755,215.930 50.601 C 216.075 50.546,223.789 50.500,233.072 50.500 C 251.419 50.500,250.866 50.528,251.268 49.566 C 251.564 48.857,251.614 31.043,251.322 30.205 C 251.158 29.736,250.354 29.167,249.856 29.167 C 249.629 29.167,249.333 28.618,249.333 28.197 C 249.333 27.840,248.779 27.410,248.099 27.239 C 247.598 27.113,247.486 26.971,247.345 26.283 C 247.106 25.111,247.978 25.167,229.917 25.167 C 214.473 25.167,213.719 25.181,213.167 25.476 M259.055 25.410 C 258.127 25.813,258.166 24.850,258.170 46.864 C 258.174 66.736,258.184 67.430,258.488 67.825 C 258.834 68.275,261.840 68.517,263.899 68.259 C 265.555 68.053,265.405 69.774,265.500 49.917 L 265.583 32.583 279.667 32.583 L 293.750 32.583 293.833 49.917 C 293.929 69.774,293.779 68.053,295.435 68.259 C 295.935 68.322,297.274 68.342,298.409 68.304 C 301.526 68.201,301.155 70.842,301.161 48.720 L 301.167 30.024 300.742 29.690 C 300.509 29.507,300.107 29.310,299.849 29.254 C 299.483 29.173,299.338 29.008,299.184 28.491 C 298.980 27.812,298.565 27.433,297.825 27.252 C 297.513 27.175,297.335 26.960,297.158 26.449 C 296.682 25.072,298.121 25.166,277.667 25.173 C 262.672 25.179,259.493 25.219,259.055 25.410 M322.926 26.393 C 322.259 27.012,322.269 30.723,322.939 31.394 L 323.379 31.833 340.369 31.833 L 357.359 31.833 357.853 32.327 L 358.347 32.821 358.299 37.953 C 358.251 43.021,358.245 43.088,357.875 43.459 L 357.500 43.833 340.467 43.833 L 323.435 43.833 322.967 44.281 L 322.500 44.729 322.500 53.767 L 322.500 62.805 323.034 63.278 C 323.328 63.537,323.849 64.050,324.192 64.417 C 324.535 64.783,324.963 65.221,325.142 65.390 C 326.165 66.351,326.456 66.650,326.833 67.126 L 327.250 67.653 345.300 67.660 L 363.349 67.667 363.759 67.225 L 364.168 66.783 364.126 48.692 L 364.083 30.600 363.334 30.029 C 362.922 29.715,362.415 29.206,362.206 28.899 C 361.997 28.592,361.575 28.170,361.268 27.961 C 360.960 27.752,360.452 27.244,360.138 26.832 L 359.566 26.083 341.459 26.041 L 323.352 25.999 322.926 26.393 M372.696 26.386 L 372.333 26.771 372.336 46.844 L 372.339 66.917 372.735 67.292 C 373.390 67.913,377.030 67.860,377.699 67.219 L 378.167 66.771 378.167 46.794 L 378.167 26.817 377.726 26.409 C 377.065 25.796,373.266 25.779,372.696 26.386 M152.792 26.568 C 152.998 26.786,153.167 27.044,153.167 27.142 C 153.167 27.716,154.080 28.167,155.248 28.170 C 156.489 28.173,156.968 28.437,157.229 29.265 C 157.289 29.457,157.544 29.718,157.794 29.846 C 158.944 30.433,158.994 30.556,158.997 32.823 C 159.001 35.663,158.998 35.667,156.273 35.667 C 153.681 35.667,153.500 35.539,153.500 33.721 C 153.500 33.018,153.429 32.500,153.333 32.500 C 153.242 32.500,153.167 32.387,153.167 32.250 C 153.167 32.112,153.054 32.000,152.917 32.000 C 152.779 32.000,152.667 31.925,152.667 31.833 C 152.667 31.724,147.814 31.667,138.441 31.667 L 124.215 31.667 123.774 32.075 L 123.333 32.484 123.333 37.897 L 123.333 43.309 123.772 43.655 C 124.209 43.998,124.293 44.000,139.231 44.005 L 154.250 44.011 154.689 44.398 C 154.931 44.611,155.179 44.942,155.240 45.134 C 155.301 45.326,155.625 45.653,155.961 45.861 C 156.699 46.317,157.029 46.637,157.250 47.110 C 157.342 47.306,157.754 47.722,158.167 48.034 L 158.917 48.600 158.917 55.750 L 158.917 62.900 158.167 63.466 C 157.754 63.778,157.342 64.194,157.250 64.390 C 157.029 64.863,156.699 65.183,155.961 65.639 C 155.625 65.847,155.301 66.174,155.240 66.366 C 155.179 66.558,154.931 66.889,154.689 67.102 L 154.250 67.489 138.376 67.495 L 122.503 67.500 122.085 67.137 C 121.855 66.937,121.667 66.674,121.667 66.553 C 121.667 66.432,121.592 66.333,121.500 66.333 C 121.408 66.333,121.333 66.221,121.333 66.083 C 121.333 65.946,121.221 65.833,121.083 65.833 C 120.946 65.833,120.833 65.758,120.833 65.667 C 120.833 65.575,120.744 65.500,120.636 65.500 C 120.361 65.500,119.667 64.822,119.667 64.554 C 119.667 64.433,119.592 64.333,119.500 64.333 C 119.408 64.333,119.333 64.221,119.333 64.083 C 119.333 63.946,119.221 63.833,119.083 63.833 C 118.946 63.833,118.833 63.758,118.833 63.667 C 118.833 63.575,118.744 63.500,118.636 63.500 C 117.903 63.500,117.667 62.836,117.667 60.773 C 117.667 58.003,117.670 58.000,120.464 58.000 C 123.119 58.000,123.326 58.138,123.330 59.906 C 123.333 60.861,123.396 61.129,123.696 61.448 L 124.058 61.833 138.370 61.833 L 152.683 61.833 153.091 61.392 L 153.500 60.951 153.500 55.750 L 153.500 50.549 153.091 50.108 L 152.683 49.667 137.591 49.667 C 120.697 49.667,122.349 49.791,121.527 48.461 C 121.320 48.125,120.996 47.802,120.809 47.742 C 120.376 47.605,120.005 47.234,119.527 46.461 C 119.320 46.125,118.992 45.800,118.799 45.739 C 118.606 45.678,118.272 45.438,118.057 45.206 L 117.667 44.785 117.667 37.833 L 117.667 30.882 118.057 30.460 C 118.272 30.229,118.596 29.992,118.776 29.935 C 118.957 29.878,119.344 29.491,119.636 29.077 C 119.928 28.662,120.298 28.274,120.459 28.215 C 120.774 28.099,121.153 27.714,121.882 26.770 L 122.348 26.167 137.382 26.170 L 152.417 26.172 152.792 26.568 M246.402 26.679 C 246.639 26.961,246.833 27.268,246.833 27.361 C 246.833 27.573,247.518 28.154,247.777 28.161 C 248.021 28.168,248.833 29.122,248.833 29.401 C 248.833 29.516,249.040 29.713,249.292 29.839 C 249.544 29.965,249.956 30.254,250.208 30.482 L 250.667 30.896 250.667 39.814 L 250.667 48.732 250.219 49.199 L 249.771 49.667 232.648 49.667 L 215.524 49.667 215.179 50.106 C 214.642 50.789,214.642 60.711,215.179 61.394 L 215.524 61.833 232.628 61.833 L 249.732 61.833 250.199 62.281 C 250.918 62.970,250.925 66.455,250.208 67.086 L 249.750 67.489 231.917 67.495 L 214.083 67.500 213.649 67.125 C 213.410 66.919,213.162 66.585,213.099 66.383 C 213.035 66.182,212.705 65.850,212.366 65.646 C 211.596 65.182,211.239 64.824,211.095 64.370 C 211.033 64.176,210.705 63.850,210.366 63.646 C 209.045 62.851,209.167 64.565,209.167 46.788 L 209.167 30.896 209.625 30.482 C 209.877 30.254,210.290 29.965,210.542 29.839 C 210.794 29.713,211.000 29.516,211.000 29.401 C 211.000 29.122,211.812 28.168,212.056 28.161 C 212.315 28.154,213.000 27.573,213.000 27.361 C 213.000 27.268,213.194 26.961,213.431 26.679 L 213.863 26.167 229.917 26.167 L 245.970 26.167 246.402 26.679 M295.958 26.471 C 296.119 26.639,296.371 26.986,296.519 27.243 C 296.668 27.501,296.999 27.832,297.257 27.981 C 297.879 28.339,298.199 28.663,298.498 29.235 C 298.635 29.496,298.935 29.790,299.165 29.887 C 299.395 29.985,299.752 30.249,299.958 30.475 L 300.333 30.885 300.333 48.807 L 300.333 66.729 299.971 67.114 C 299.433 67.687,295.823 67.705,295.219 67.138 L 294.833 66.775 294.833 49.694 L 294.833 32.613 294.303 32.140 L 293.773 31.667 279.667 31.667 L 265.560 31.667 265.030 32.140 L 264.500 32.613 264.500 49.671 L 264.500 66.729 264.138 67.114 C 263.599 67.687,259.990 67.705,259.386 67.138 L 259.000 66.775 259.000 46.804 C 259.000 28.017,259.017 26.814,259.292 26.514 C 259.738 26.026,295.492 25.984,295.958 26.471 M215.274 32.075 L 214.833 32.484 214.833 37.833 L 214.833 43.182 215.242 43.591 L 215.652 44.000 229.917 44.000 L 244.182 44.000 244.591 43.591 L 245.000 43.182 245.000 37.833 L 245.000 32.484 244.559 32.075 L 244.118 31.667 229.917 31.667 L 215.715 31.667 215.274 32.075 M243.967 32.700 C 244.113 32.847,244.167 34.219,244.167 37.833 C 244.167 41.448,244.113 42.820,243.967 42.967 C 243.677 43.256,216.156 43.256,215.867 42.967 C 215.720 42.820,215.667 41.448,215.667 37.833 C 215.667 34.219,215.720 32.847,215.867 32.700 C 216.156 32.410,243.677 32.410,243.967 32.700 M357.828 50.161 L 358.333 50.655 358.333 55.750 L 358.333 60.845 357.828 61.339 L 357.322 61.833 343.359 61.833 L 329.397 61.833 328.865 61.314 L 328.333 60.794 328.333 55.750 L 328.333 50.706 328.865 50.186 L 329.397 49.667 343.359 49.667 L 357.322 49.667 357.828 50.161 M308.875 62.235 C 308.528 62.601,308.500 62.783,308.500 64.681 C 308.500 67.584,308.583 67.667,311.500 67.667 C 314.422 67.667,314.501 67.587,314.497 64.658 C 314.493 61.814,314.513 61.832,311.477 61.836 C 309.351 61.839,309.233 61.857,308.875 62.235 " stroke="none" fill="#b4a4d4" fill-rule="evenodd"></path><path id="path2" d="M0.000 44.750 L 0.000 89.500 200.000 89.500 L 400.000 89.500 400.000 44.750 L 400.000 0.000 200.000 0.000 L 0.000 0.000 0.000 44.750 M169.476 11.833 C 169.821 12.249,169.822 12.305,169.828 27.508 C 169.832 39.147,169.881 42.814,170.033 42.967 C 170.180 43.113,171.557 43.167,175.191 43.167 C 180.590 43.167,180.667 43.152,180.667 42.150 C 180.667 41.805,181.065 41.467,181.728 41.250 C 182.190 41.099,182.349 40.896,182.830 39.844 C 182.890 39.713,183.046 39.556,183.178 39.496 C 184.211 39.024,184.424 38.862,184.499 38.494 C 184.623 37.891,185.039 37.333,185.366 37.333 C 185.988 37.333,186.500 36.957,186.500 36.499 C 186.500 35.959,186.848 35.622,187.792 35.246 C 188.384 35.010,188.500 34.889,188.500 34.508 C 188.500 33.960,188.845 33.623,189.792 33.246 C 190.384 33.010,190.500 32.889,190.500 32.508 C 190.500 31.980,190.835 31.636,191.692 31.282 C 192.149 31.093,192.328 30.904,192.413 30.517 C 192.541 29.934,193.129 29.405,193.817 29.254 C 194.184 29.173,194.328 29.008,194.483 28.491 C 194.686 27.812,195.101 27.433,195.842 27.252 C 196.153 27.175,196.332 26.960,196.508 26.449 C 196.909 25.289,197.342 25.167,201.047 25.167 C 205.143 25.167,205.667 25.371,205.667 26.971 C 205.667 27.786,205.295 28.259,204.420 28.556 C 203.880 28.739,203.737 28.879,203.649 29.312 C 203.522 29.931,202.936 30.500,202.424 30.500 C 201.968 30.500,201.667 30.801,201.667 31.258 C 201.667 31.769,201.098 32.355,200.479 32.482 C 200.047 32.570,199.905 32.715,199.718 33.253 C 199.430 34.087,199.177 34.339,198.492 34.479 C 198.045 34.571,197.906 34.710,197.718 35.253 C 197.429 36.087,197.177 36.339,196.490 36.480 C 196.084 36.563,195.897 36.719,195.763 37.087 C 195.446 37.962,195.163 38.333,194.817 38.333 C 194.280 38.333,193.881 38.622,193.762 39.096 C 193.584 39.803,193.156 40.333,192.763 40.333 C 192.242 40.333,191.899 40.657,191.677 41.362 C 191.449 42.081,191.262 42.257,190.570 42.404 C 190.157 42.493,189.979 42.681,189.654 43.374 C 189.307 44.113,189.158 44.259,188.597 44.410 C 188.028 44.564,187.912 44.681,187.702 45.310 C 187.465 46.021,187.326 46.131,186.128 46.552 C 185.688 46.707,185.960 47.167,186.492 47.167 C 187.040 47.167,187.377 47.511,187.754 48.458 C 187.990 49.050,188.111 49.167,188.492 49.167 C 189.040 49.167,189.377 49.511,189.754 50.458 C 189.993 51.057,190.109 51.167,190.506 51.167 C 191.041 51.167,191.584 51.743,191.746 52.484 C 191.827 52.851,191.992 52.995,192.509 53.150 C 193.193 53.355,193.567 53.768,193.753 54.527 C 193.826 54.824,194.009 55.007,194.306 55.080 C 195.064 55.266,195.479 55.640,195.682 56.320 C 195.829 56.810,195.989 57.002,196.314 57.082 C 197.062 57.266,197.479 57.641,197.680 58.312 C 197.841 58.851,197.978 58.991,198.493 59.145 C 199.523 59.453,199.742 59.837,199.809 61.450 L 199.869 62.865 200.476 63.116 C 201.337 63.471,201.667 63.814,201.667 64.356 C 201.667 64.899,201.817 64.954,203.540 65.042 C 205.453 65.139,206.369 66.581,205.314 67.833 L 204.962 68.250 200.055 68.250 L 195.148 68.250 194.830 67.833 C 194.655 67.604,194.465 67.205,194.407 66.947 C 194.300 66.468,194.255 66.435,193.460 66.261 C 192.735 66.102,192.433 65.455,192.336 63.851 L 192.250 62.429 191.704 62.318 C 191.071 62.189,190.500 61.607,190.500 61.091 C 190.500 60.635,190.199 60.333,189.742 60.333 C 189.231 60.333,188.645 59.764,188.518 59.145 C 188.430 58.714,188.285 58.571,187.747 58.385 C 186.913 58.096,186.661 57.844,186.521 57.159 C 186.429 56.712,186.290 56.573,185.747 56.385 C 184.913 56.096,184.661 55.844,184.520 55.157 C 184.437 54.751,184.281 54.564,183.913 54.430 C 183.009 54.102,182.667 53.831,182.667 53.443 C 182.667 52.909,182.348 52.568,181.638 52.343 C 180.931 52.119,180.758 51.939,180.593 51.252 C 180.527 50.978,180.386 50.697,180.278 50.629 C 180.046 50.481,170.478 50.455,170.097 50.601 C 169.862 50.692,169.833 51.596,169.828 59.059 C 169.821 69.272,170.168 68.222,166.774 68.302 C 163.775 68.372,163.217 68.259,162.809 67.499 C 162.325 66.595,162.326 13.069,162.811 12.164 C 163.215 11.410,163.515 11.349,166.606 11.386 C 169.077 11.416,169.136 11.425,169.476 11.833 M377.719 12.467 C 378.375 13.152,378.409 16.848,377.765 17.458 C 377.192 18.002,373.201 18.034,372.667 17.500 C 372.132 16.966,372.165 12.974,372.708 12.401 C 373.333 11.743,377.072 11.792,377.719 12.467 M76.509 22.166 C 76.835 22.257,77.279 22.500,77.496 22.707 C 77.713 22.914,78.230 23.274,78.645 23.508 C 79.953 24.245,79.974 24.333,79.988 29.094 C 80.006 35.222,79.849 35.745,77.876 36.152 C 76.287 36.479,25.969 36.334,25.099 36.000 C 23.747 35.481,23.750 35.493,23.750 29.600 L 23.750 24.391 24.329 23.862 C 24.647 23.571,24.966 23.333,25.037 23.333 C 25.108 23.333,25.299 23.202,25.460 23.042 C 25.621 22.881,25.977 22.584,26.251 22.380 L 26.750 22.011 51.333 22.006 C 67.013 22.003,76.131 22.061,76.509 22.166 M153.064 25.419 C 153.446 25.600,153.664 25.869,153.839 26.377 L 154.083 27.083 155.500 27.174 C 157.150 27.279,157.561 27.490,157.822 28.362 C 157.979 28.884,158.156 29.068,158.798 29.375 C 159.888 29.896,159.995 30.200,159.998 32.797 C 160.002 36.449,159.949 36.500,156.185 36.500 C 152.777 36.500,152.667 36.430,152.667 34.276 C 152.667 33.428,152.590 32.823,152.467 32.700 C 152.121 32.354,124.401 32.417,124.268 32.764 C 124.136 33.108,124.136 42.559,124.268 42.903 C 124.359 43.141,125.864 43.168,139.476 43.183 C 156.517 43.202,155.276 43.118,155.824 44.294 C 156.164 45.025,156.302 45.167,156.673 45.167 C 157.207 45.167,157.546 45.517,157.921 46.458 C 158.118 46.954,158.301 47.167,158.529 47.167 C 159.939 47.167,160.000 47.520,160.000 55.750 C 160.000 63.980,159.939 64.333,158.529 64.333 C 158.301 64.333,158.118 64.546,157.921 65.042 C 157.546 65.983,157.207 66.333,156.673 66.333 C 156.302 66.333,156.164 66.475,155.824 67.204 C 155.259 68.411,156.311 68.347,137.939 68.296 L 121.537 68.250 121.191 67.833 C 121.000 67.604,120.842 67.263,120.839 67.075 C 120.832 66.626,120.523 66.333,120.058 66.333 C 119.573 66.333,118.833 65.594,118.833 65.109 C 118.833 64.630,118.537 64.333,118.058 64.333 C 117.042 64.333,116.833 63.732,116.833 60.815 C 116.833 57.057,116.888 57.000,120.511 57.000 C 123.772 57.000,123.943 57.122,124.142 59.583 L 124.250 60.917 138.083 60.963 C 145.692 60.988,152.085 60.968,152.292 60.918 L 152.667 60.827 152.667 55.747 C 152.667 52.953,152.648 50.649,152.625 50.628 C 152.602 50.607,145.670 50.550,137.220 50.503 C 119.956 50.406,120.994 50.488,120.866 49.206 C 120.823 48.780,120.699 48.649,120.116 48.417 C 119.178 48.044,118.833 47.706,118.833 47.159 C 118.833 46.778,118.717 46.657,118.125 46.421 C 116.727 45.864,116.833 46.574,116.833 37.833 C 116.833 29.101,116.739 29.746,118.091 29.278 C 118.623 29.094,118.763 28.953,118.854 28.508 C 118.994 27.823,119.246 27.570,120.080 27.282 C 120.606 27.100,120.764 26.949,120.845 26.553 C 121.142 25.099,120.165 25.181,137.391 25.173 C 150.567 25.168,152.602 25.199,153.064 25.419 M246.666 25.476 C 247.063 25.689,247.276 25.942,247.345 26.283 C 247.486 26.971,247.598 27.113,248.099 27.239 C 248.779 27.410,249.333 27.840,249.333 28.197 C 249.333 28.618,249.629 29.167,249.856 29.167 C 250.354 29.167,251.158 29.736,251.322 30.205 C 251.614 31.043,251.564 48.857,251.268 49.566 C 250.866 50.528,251.419 50.500,233.072 50.500 C 223.789 50.500,216.075 50.546,215.930 50.601 C 215.530 50.755,215.530 60.745,215.930 60.899 C 216.075 60.954,223.789 61.000,233.072 61.000 C 251.419 61.000,250.866 60.972,251.268 61.934 C 251.631 62.802,251.588 66.741,251.208 67.493 C 250.769 68.361,251.218 68.342,231.525 68.295 C 211.470 68.246,212.500 68.297,212.500 67.345 C 212.500 66.900,212.007 66.334,211.616 66.328 C 211.139 66.321,210.500 65.781,210.500 65.385 C 210.500 64.906,210.022 64.334,209.616 64.328 C 209.414 64.325,209.063 64.166,208.833 63.976 L 208.417 63.629 208.417 46.805 L 208.417 29.981 208.833 29.663 C 209.063 29.489,209.457 29.299,209.710 29.243 C 210.197 29.133,210.500 28.733,210.500 28.197 C 210.500 27.840,211.055 27.410,211.734 27.239 C 212.235 27.113,212.347 26.971,212.488 26.283 C 212.728 25.111,211.855 25.167,229.917 25.167 C 245.360 25.167,246.115 25.181,246.666 25.476 M296.333 25.459 C 296.762 25.673,296.981 25.935,297.158 26.449 C 297.335 26.960,297.513 27.175,297.825 27.252 C 298.565 27.433,298.980 27.812,299.184 28.491 C 299.338 29.008,299.483 29.173,299.849 29.254 C 300.107 29.310,300.509 29.507,300.742 29.690 L 301.167 30.024 301.161 48.720 C 301.155 70.842,301.526 68.201,298.409 68.304 C 297.274 68.342,295.935 68.322,295.435 68.259 C 293.779 68.053,293.929 69.774,293.833 49.917 L 293.750 32.583 279.667 32.583 L 265.583 32.583 265.500 49.917 C 265.405 69.774,265.555 68.053,263.899 68.259 C 261.840 68.517,258.834 68.275,258.488 67.825 C 258.114 67.339,257.976 26.667,258.346 25.975 C 258.781 25.163,258.361 25.180,277.667 25.173 C 294.557 25.168,295.788 25.186,296.333 25.459 M360.138 26.832 C 360.452 27.244,360.960 27.752,361.268 27.961 C 361.575 28.170,361.997 28.592,362.206 28.899 C 362.415 29.206,362.922 29.715,363.334 30.029 L 364.083 30.600 364.126 48.692 L 364.168 66.783 363.759 67.225 L 363.349 67.667 345.300 67.660 L 327.250 67.653 326.833 67.126 C 326.456 66.650,326.165 66.351,325.142 65.390 C 324.963 65.221,324.535 64.783,324.192 64.417 C 323.849 64.050,323.328 63.537,323.034 63.278 L 322.500 62.805 322.500 53.767 L 322.500 44.729 322.967 44.281 L 323.435 43.833 340.467 43.833 L 357.500 43.833 357.875 43.459 C 358.245 43.088,358.251 43.021,358.299 37.953 L 358.347 32.821 357.853 32.327 L 357.359 31.833 340.369 31.833 L 323.379 31.833 322.939 31.394 C 322.269 30.723,322.259 27.012,322.926 26.393 L 323.352 25.999 341.459 26.041 L 359.566 26.083 360.138 26.832 M377.726 26.409 L 378.167 26.817 378.167 46.794 L 378.167 66.771 377.699 67.219 C 377.030 67.860,373.390 67.913,372.735 67.292 L 372.339 66.917 372.336 46.844 L 372.333 26.771 372.696 26.386 C 373.266 25.779,377.065 25.796,377.726 26.409 M215.867 32.700 C 215.720 32.847,215.667 34.219,215.667 37.833 C 215.667 41.448,215.720 42.820,215.867 42.967 C 216.156 43.256,243.677 43.256,243.967 42.967 C 244.113 42.820,244.167 41.448,244.167 37.833 C 244.167 34.219,244.113 32.847,243.967 32.700 C 243.677 32.410,216.156 32.410,215.867 32.700 M78.146 41.593 C 79.863 42.102,80.000 42.618,80.000 48.550 C 80.000 53.072,79.880 53.698,78.926 54.132 C 78.725 54.224,78.202 54.608,77.765 54.987 L 76.970 55.675 55.007 55.629 L 33.044 55.583 32.392 54.917 C 31.013 53.508,31.083 53.874,31.083 48.083 C 31.083 42.646,31.196 41.833,31.953 41.833 C 32.070 41.833,32.167 41.764,32.167 41.679 C 32.167 41.241,76.680 41.157,78.146 41.593 M328.865 50.186 L 328.333 50.706 328.333 55.750 L 328.333 60.794 328.865 61.314 L 329.397 61.833 343.359 61.833 L 357.322 61.833 357.828 61.339 L 358.333 60.845 358.333 55.750 L 358.333 50.655 357.828 50.161 L 357.322 49.667 343.359 49.667 L 329.397 49.667 328.865 50.186 M77.553 59.688 C 79.648 60.770,80.000 61.767,80.000 66.626 C 80.000 71.366,79.933 71.717,78.825 72.825 C 77.574 74.077,79.132 74.001,54.814 73.988 C 30.022 73.974,32.281 74.111,31.500 72.571 C 30.943 71.473,30.842 62.552,31.375 61.516 C 31.535 61.204,31.669 60.867,31.672 60.766 C 31.680 60.508,32.268 59.833,32.485 59.833 C 32.585 59.833,32.667 59.758,32.667 59.667 C 32.667 59.417,77.069 59.438,77.553 59.688 M314.099 62.208 C 314.473 62.564,314.494 62.693,314.497 64.658 C 314.501 67.587,314.422 67.667,311.500 67.667 C 308.583 67.667,308.500 67.584,308.500 64.681 C 308.500 61.824,308.484 61.840,311.477 61.836 C 313.559 61.834,313.729 61.858,314.099 62.208 " stroke="none" fill="#fcfcfc" fill-rule="evenodd"></path><path id="path3" d="M163.862 12.552 L 163.500 12.938 163.500 39.857 L 163.500 66.775 163.886 67.138 C 164.470 67.686,167.951 67.686,168.582 67.137 L 169.000 66.773 169.000 58.661 L 169.000 50.549 169.409 50.108 L 169.817 49.667 175.234 49.667 L 180.651 49.667 180.951 50.094 C 181.628 51.059,182.074 51.536,182.425 51.670 C 182.629 51.747,183.011 52.128,183.273 52.515 C 183.535 52.902,183.899 53.301,184.082 53.401 C 184.466 53.612,184.892 54.046,185.549 54.897 C 185.805 55.229,186.106 55.500,186.217 55.500 C 186.329 55.500,186.607 55.734,186.835 56.020 C 187.876 57.324,188.042 57.500,188.225 57.500 C 188.332 57.500,188.607 57.734,188.835 58.020 C 189.887 59.337,190.044 59.500,190.265 59.500 C 190.394 59.500,190.500 59.575,190.500 59.667 C 190.500 59.758,190.612 59.833,190.750 59.833 C 190.887 59.833,191.000 59.946,191.000 60.083 C 191.000 60.221,191.075 60.333,191.167 60.333 C 191.258 60.333,191.333 60.439,191.333 60.569 C 191.333 60.789,191.497 60.947,192.814 61.998 C 193.309 62.393,193.333 62.470,193.333 63.608 C 193.333 64.915,193.212 64.720,194.814 65.998 C 195.099 66.226,195.333 66.495,195.333 66.594 C 195.333 67.599,203.409 68.061,204.430 67.115 L 204.846 66.729 204.431 66.281 C 204.056 65.876,203.903 65.833,202.833 65.833 C 201.693 65.833,200.833 65.404,200.833 64.833 C 200.833 64.645,200.033 63.833,199.848 63.833 C 199.281 63.833,198.833 62.913,198.833 61.747 C 198.833 60.489,198.644 60.163,197.667 59.734 C 197.438 59.633,197.137 59.336,197.000 59.072 C 196.699 58.496,196.380 58.173,195.757 57.814 C 195.499 57.666,195.168 57.334,195.019 57.077 C 194.679 56.485,194.348 56.154,193.757 55.814 C 193.499 55.666,193.168 55.334,193.019 55.077 C 192.706 54.532,192.222 54.000,192.040 54.000 C 191.825 54.000,191.000 53.165,191.000 52.947 C 191.000 52.704,190.648 52.386,189.800 51.863 C 189.461 51.654,189.135 51.330,189.075 51.142 C 188.938 50.709,188.567 50.338,187.794 49.861 C 187.459 49.653,187.134 49.325,187.072 49.132 C 186.961 48.781,186.222 48.000,186.000 48.000 C 185.706 48.000,185.000 47.143,185.000 46.787 C 185.000 46.398,185.612 45.667,185.938 45.667 C 186.151 45.667,186.921 44.837,187.050 44.468 C 187.104 44.313,187.359 44.055,187.616 43.896 C 188.346 43.442,188.856 42.950,189.010 42.550 C 189.088 42.349,189.361 42.054,189.618 41.895 C 190.341 41.445,190.856 40.950,191.007 40.560 C 191.082 40.364,191.463 39.989,191.851 39.727 C 192.467 39.312,192.883 38.816,193.266 38.042 C 193.323 37.927,193.468 37.833,193.588 37.833 C 193.880 37.833,194.833 37.023,194.833 36.775 C 194.833 36.668,195.067 36.393,195.353 36.165 C 196.657 35.124,196.833 34.958,196.833 34.775 C 196.833 34.668,197.067 34.393,197.353 34.165 C 198.657 33.124,198.833 32.958,198.833 32.775 C 198.833 32.668,199.067 32.393,199.353 32.165 C 200.670 31.113,200.833 30.956,200.833 30.735 C 200.833 30.606,200.908 30.500,201.000 30.500 C 201.092 30.500,201.167 30.387,201.167 30.250 C 201.167 30.113,201.279 30.000,201.417 30.000 C 201.554 30.000,201.667 29.925,201.667 29.833 C 201.667 29.742,201.772 29.667,201.902 29.667 C 202.122 29.667,202.280 29.503,203.332 28.186 C 203.560 27.901,203.828 27.667,203.927 27.667 C 204.027 27.667,204.272 27.493,204.472 27.280 L 204.835 26.893 204.449 26.530 C 204.080 26.184,203.916 26.167,201.031 26.167 C 197.715 26.167,197.777 26.149,197.147 27.243 C 196.999 27.501,196.667 27.832,196.410 27.981 C 195.787 28.339,195.468 28.663,195.167 29.239 C 195.029 29.502,194.729 29.800,194.500 29.900 C 193.973 30.132,193.333 30.687,193.333 30.914 C 193.333 31.164,192.523 32.000,192.280 32.000 C 192.037 32.000,191.720 32.352,191.197 33.200 C 190.988 33.539,190.663 33.865,190.475 33.925 C 190.043 34.062,189.672 34.433,189.194 35.206 C 188.987 35.541,188.663 35.865,188.475 35.925 C 188.043 36.062,187.672 36.433,187.194 37.206 C 186.987 37.541,186.658 37.867,186.463 37.928 C 186.009 38.073,185.651 38.430,185.188 39.200 C 184.984 39.539,184.658 39.867,184.463 39.928 C 183.993 40.078,183.601 40.468,183.273 41.113 C 183.125 41.405,182.712 41.807,182.355 42.008 C 181.998 42.209,181.542 42.664,181.342 43.019 C 180.789 44.005,180.821 44.000,175.086 44.000 L 169.817 44.000 169.409 43.559 L 169.000 43.118 169.000 28.068 L 169.000 13.017 168.606 12.592 C 168.024 11.964,164.443 11.934,163.862 12.552 M121.882 26.770 C 121.153 27.714,120.774 28.099,120.459 28.215 C 120.298 28.274,119.928 28.662,119.636 29.077 C 119.344 29.491,118.957 29.878,118.776 29.935 C 118.596 29.992,118.272 30.229,118.057 30.460 L 117.667 30.882 117.667 37.833 L 117.667 44.785 118.057 45.206 C 118.272 45.438,118.606 45.678,118.799 45.739 C 118.992 45.800,119.320 46.125,119.527 46.461 C 120.005 47.234,120.376 47.605,120.809 47.742 C 120.996 47.802,121.320 48.125,121.527 48.461 C 122.349 49.791,120.697 49.667,137.591 49.667 L 152.683 49.667 153.091 50.108 L 153.500 50.549 153.500 55.750 L 153.500 60.951 153.091 61.392 L 152.683 61.833 138.370 61.833 L 124.058 61.833 123.696 61.448 C 123.396 61.129,123.333 60.861,123.330 59.906 C 123.326 58.138,123.119 58.000,120.464 58.000 C 117.670 58.000,117.667 58.003,117.667 60.773 C 117.667 62.836,117.903 63.500,118.636 63.500 C 118.744 63.500,118.833 63.575,118.833 63.667 C 118.833 63.758,118.946 63.833,119.083 63.833 C 119.221 63.833,119.333 63.946,119.333 64.083 C 119.333 64.221,119.408 64.333,119.500 64.333 C 119.592 64.333,119.667 64.433,119.667 64.554 C 119.667 64.822,120.361 65.500,120.636 65.500 C 120.744 65.500,120.833 65.575,120.833 65.667 C 120.833 65.758,120.946 65.833,121.083 65.833 C 121.221 65.833,121.333 65.946,121.333 66.083 C 121.333 66.221,121.408 66.333,121.500 66.333 C 121.592 66.333,121.667 66.432,121.667 66.553 C 121.667 66.674,121.855 66.937,122.085 67.137 L 122.503 67.500 138.376 67.495 L 154.250 67.489 154.689 67.102 C 154.931 66.889,155.179 66.558,155.240 66.366 C 155.301 66.174,155.625 65.847,155.961 65.639 C 156.699 65.183,157.029 64.863,157.250 64.390 C 157.342 64.194,157.754 63.778,158.167 63.466 L 158.917 62.900 158.917 55.750 L 158.917 48.600 158.167 48.034 C 157.754 47.722,157.342 47.306,157.250 47.110 C 157.029 46.637,156.699 46.317,155.961 45.861 C 155.625 45.653,155.301 45.326,155.240 45.134 C 155.179 44.942,154.931 44.611,154.689 44.398 L 154.250 44.011 139.231 44.005 C 124.293 44.000,124.209 43.998,123.772 43.655 L 123.333 43.309 123.333 37.897 L 123.333 32.484 123.774 32.075 L 124.215 31.667 138.441 31.667 C 147.814 31.667,152.667 31.724,152.667 31.833 C 152.667 31.925,152.779 32.000,152.917 32.000 C 153.054 32.000,153.167 32.112,153.167 32.250 C 153.167 32.387,153.242 32.500,153.333 32.500 C 153.429 32.500,153.500 33.018,153.500 33.721 C 153.500 35.539,153.681 35.667,156.273 35.667 C 158.998 35.667,159.001 35.663,158.997 32.823 C 158.994 30.556,158.944 30.433,157.794 29.846 C 157.544 29.718,157.289 29.457,157.229 29.265 C 156.968 28.437,156.489 28.173,155.248 28.170 C 154.080 28.167,153.167 27.716,153.167 27.142 C 153.167 27.044,152.998 26.786,152.792 26.568 L 152.417 26.172 137.382 26.170 L 122.348 26.167 121.882 26.770 M213.431 26.679 C 213.194 26.961,213.000 27.268,213.000 27.361 C 213.000 27.573,212.315 28.154,212.056 28.161 C 211.812 28.168,211.000 29.122,211.000 29.401 C 211.000 29.516,210.794 29.713,210.542 29.839 C 210.290 29.965,209.877 30.254,209.625 30.482 L 209.167 30.896 209.167 46.788 C 209.167 64.565,209.045 62.851,210.366 63.646 C 210.705 63.850,211.033 64.176,211.095 64.370 C 211.239 64.824,211.596 65.182,212.366 65.646 C 212.705 65.850,213.035 66.182,213.099 66.383 C 213.162 66.585,213.410 66.919,213.649 67.125 L 214.083 67.500 231.917 67.495 L 249.750 67.489 250.208 67.086 C 250.925 66.455,250.918 62.970,250.199 62.281 L 249.732 61.833 232.628 61.833 L 215.524 61.833 215.179 61.394 C 214.642 60.711,214.642 50.789,215.179 50.106 L 215.524 49.667 232.648 49.667 L 249.771 49.667 250.219 49.199 L 250.667 48.732 250.667 39.814 L 250.667 30.896 250.208 30.482 C 249.956 30.254,249.544 29.965,249.292 29.839 C 249.040 29.713,248.833 29.516,248.833 29.401 C 248.833 29.122,248.021 28.168,247.777 28.161 C 247.518 28.154,246.833 27.573,246.833 27.361 C 246.833 27.268,246.639 26.961,246.402 26.679 L 245.970 26.167 229.917 26.167 L 213.863 26.167 213.431 26.679 M259.292 26.514 C 259.017 26.814,259.000 28.017,259.000 46.804 L 259.000 66.775 259.386 67.138 C 259.990 67.705,263.599 67.687,264.138 67.114 L 264.500 66.729 264.500 49.671 L 264.500 32.613 265.030 32.140 L 265.560 31.667 279.667 31.667 L 293.773 31.667 294.303 32.140 L 294.833 32.613 294.833 49.694 L 294.833 66.775 295.219 67.138 C 295.823 67.705,299.433 67.687,299.971 67.114 L 300.333 66.729 300.333 48.807 L 300.333 30.885 299.958 30.475 C 299.752 30.249,299.395 29.985,299.165 29.887 C 298.935 29.790,298.635 29.496,298.498 29.235 C 298.199 28.663,297.879 28.339,297.257 27.981 C 296.999 27.832,296.668 27.501,296.519 27.243 C 295.838 26.060,297.704 26.165,277.625 26.181 C 260.067 26.194,259.576 26.203,259.292 26.514 M244.559 32.075 L 245.000 32.484 245.000 37.833 L 245.000 43.182 244.591 43.591 L 244.182 44.000 229.917 44.000 L 215.652 44.000 215.242 43.591 L 214.833 43.182 214.833 37.833 L 214.833 32.484 215.274 32.075 L 215.715 31.667 229.917 31.667 L 244.118 31.667 244.559 32.075 " stroke="none" fill="#040404" fill-rule="evenodd"></path><path id="path4" d="M26.251 22.380 C 25.977 22.584,25.621 22.881,25.460 23.042 C 25.299 23.202,25.108 23.333,25.037 23.333 C 24.966 23.333,24.647 23.571,24.329 23.862 L 23.750 24.391 23.750 29.600 C 23.750 35.493,23.747 35.481,25.099 36.000 C 25.969 36.334,76.287 36.479,77.876 36.152 C 79.849 35.745,80.006 35.222,79.988 29.094 C 79.974 24.333,79.953 24.245,78.645 23.508 C 78.230 23.274,77.713 22.914,77.496 22.707 C 76.755 22.001,76.769 22.002,51.333 22.006 L 26.750 22.011 26.251 22.380 M77.351 24.365 C 78.078 24.708,78.510 25.018,78.570 25.240 C 78.739 25.869,78.676 33.500,78.502 33.500 C 78.412 33.500,78.258 33.820,78.159 34.210 C 77.809 35.603,79.909 35.500,51.761 35.500 C 23.334 35.500,26.080 35.664,25.287 33.922 C 24.833 32.926,24.829 32.886,24.844 29.500 C 24.862 25.451,24.964 24.970,25.917 24.448 C 26.283 24.248,26.608 24.027,26.639 23.958 C 26.669 23.890,37.839 23.833,51.459 23.833 L 76.224 23.833 77.351 24.365 M32.458 41.448 C 32.298 41.490,32.167 41.594,32.167 41.679 C 32.167 41.764,32.070 41.833,31.953 41.833 C 31.196 41.833,31.083 42.646,31.083 48.083 C 31.083 53.874,31.013 53.508,32.392 54.917 L 33.044 55.583 55.007 55.629 L 76.970 55.675 77.765 54.987 C 78.202 54.608,78.725 54.224,78.926 54.132 C 79.880 53.698,80.000 53.072,80.000 48.550 C 80.000 42.618,79.863 42.102,78.146 41.593 C 77.308 41.344,33.389 41.205,32.458 41.448 M77.520 42.622 C 77.838 42.809,78.066 43.126,78.175 43.531 C 78.267 43.873,78.415 44.198,78.505 44.253 C 78.675 44.358,78.736 51.814,78.571 52.417 C 78.521 52.600,78.063 52.996,77.553 53.296 L 76.626 53.842 54.811 53.796 L 32.996 53.750 32.579 53.250 L 32.163 52.750 32.206 47.892 C 32.247 43.384,32.273 43.009,32.567 42.684 L 32.885 42.333 54.958 42.333 C 75.581 42.333,77.064 42.352,77.520 42.622 M32.667 59.667 C 32.667 59.758,32.585 59.833,32.485 59.833 C 32.268 59.833,31.680 60.508,31.672 60.766 C 31.669 60.867,31.535 61.204,31.375 61.516 C 30.842 62.552,30.943 71.473,31.500 72.571 C 32.281 74.111,30.022 73.974,54.814 73.988 C 79.132 74.001,77.574 74.077,78.825 72.825 C 79.933 71.717,80.000 71.366,80.000 66.626 C 80.000 61.767,79.648 60.770,77.553 59.688 C 77.069 59.438,32.667 59.417,32.667 59.667 M76.754 60.794 C 76.848 60.862,77.059 61.129,77.224 61.388 C 77.389 61.647,77.782 62.011,78.096 62.196 L 78.667 62.533 78.667 66.586 L 78.667 70.640 77.653 71.653 L 76.640 72.667 55.112 72.664 C 43.271 72.663,33.426 72.620,33.234 72.568 C 32.383 72.340,32.166 71.137,32.169 66.663 C 32.173 61.810,32.257 61.505,33.750 60.976 C 34.627 60.665,76.329 60.489,76.754 60.794 " stroke="none" fill="#cc80fc" fill-rule="evenodd"></path></g></svg>