<?xml version="1.0" encoding="UTF-8"?>
<svg width="128px" height="32px" viewBox="0 0 128 32" version="1.1" xmlns="http://www.w3.org/2000/svg" xmlns:xlink="http://www.w3.org/1999/xlink">
    <!-- Generator: Sketch 53.2 (72643) - https://sketchapp.com -->
    <title>logo</title>
    <desc>Created with Sketch.</desc>
    <g id="branding" stroke="none" stroke-width="1" fill="none" fill-rule="evenodd">
        <g id="Artboard" transform="translate(-270.000000, -327.000000)">
            <g id="logo" transform="translate(267.000000, 327.000000)">
                <path d="M48.5234375,22 L47.8203125,19.5234375 L44.140625,19.5234375 L43.4140625,22 L40.5703125,22 L44.3515625,10.7265625 L47.859375,10.7265625 L51.6484375,22 L48.5234375,22 Z M45.921875,13.265625 L44.6875,17.4609375 L47.28125,17.4609375 L46.0703125,13.265625 L45.921875,13.265625 Z M53.3730469,12.1357422 L57.6933594,12.1357422 C59.8125,12.1357422 61.2480469,13.5166016 61.2480469,15.6357422 C61.2480469,17.734375 59.7373047,19.1083984 57.5429688,19.1083984 L55.8818359,19.1083984 L55.8818359,22 L53.3730469,22 L53.3730469,12.1357422 Z M55.8818359,14.0634766 L55.8818359,17.2148438 L57.0166016,17.2148438 C58.0830078,17.2148438 58.7119141,16.6679688 58.7119141,15.6425781 C58.7119141,14.6035156 58.0898438,14.0634766 57.0302734,14.0634766 L55.8818359,14.0634766 Z M63.0869141,12.1357422 L67.4072266,12.1357422 C69.5263672,12.1357422 70.9619141,13.5166016 70.9619141,15.6357422 C70.9619141,17.734375 69.4511719,19.1083984 67.2568359,19.1083984 L65.5957031,19.1083984 L65.5957031,22 L63.0869141,22 L63.0869141,12.1357422 Z M65.5957031,14.0634766 L65.5957031,17.2148438 L66.7304688,17.2148438 C67.796875,17.2148438 68.4257812,16.6679688 68.4257812,15.6425781 C68.4257812,14.6035156 67.8037109,14.0634766 66.7441406,14.0634766 L65.5957031,14.0634766 Z M72.4746094,18.7890625 L75.2089844,18.7890625 C75.2792969,19.609375 76.0996094,20.1328125 77.2871094,20.1328125 C78.3574219,20.1328125 79.0917969,19.6171875 79.0917969,18.875 C79.0917969,18.25 78.5996094,17.9140625 77.3105469,17.65625 L75.8261719,17.359375 C73.7636719,16.96875 72.7011719,15.84375 72.7011719,14.0703125 C72.7011719,11.8671875 74.4667969,10.421875 77.1855469,10.421875 C79.8261719,10.421875 81.6542969,11.8515625 81.7011719,13.9375 L79.0527344,13.9375 C78.9902344,13.140625 78.2324219,12.5859375 77.2246094,12.5859375 C76.2167969,12.5859375 75.5527344,13.0625 75.5527344,13.8125 C75.5527344,14.4296875 76.0527344,14.7890625 77.2402344,15.0234375 L78.6933594,15.3046875 C80.9199219,15.734375 81.9199219,16.7421875 81.9199219,18.53125 C81.9199219,20.8828125 80.1230469,22.3046875 77.1699219,22.3046875 C74.3183594,22.3046875 72.5214844,20.9609375 72.4746094,18.7890625 Z M90.6787109,19.9833984 L90.6787109,22 L83.9179688,22 L83.9179688,12.1357422 L90.6787109,12.1357422 L90.6787109,14.1523438 L86.4267578,14.1523438 L86.4267578,16.1210938 L90.4257812,16.1210938 L90.4257812,17.9667969 L86.4267578,17.9667969 L86.4267578,19.9833984 L90.6787109,19.9833984 Z M97.125,22.2666016 C94.171875,22.2666016 92.3535156,20.2841797 92.3535156,17.0644531 C92.3535156,13.8447266 94.1650391,11.8691406 97.125,11.8691406 C99.6064453,11.8691406 101.486328,13.5234375 101.561523,15.7587891 L99.1484375,15.7587891 C99.0185547,14.6855469 98.2050781,13.9609375 97.125,13.9609375 C95.7509766,13.9609375 94.9101562,15.1367188 94.9101562,17.0576172 C94.9101562,18.9853516 95.7509766,20.1748047 97.1318359,20.1748047 C98.2119141,20.1748047 99.0185547,19.4775391 99.1621094,18.4179688 L101.568359,18.4179688 C101.486328,20.6738281 99.6542969,22.2666016 97.125,22.2666016 Z M106.413086,22 L103.545898,22 L103.545898,10.7265625 L111.217773,10.7265625 L111.217773,13.03125 L106.413086,13.03125 L106.413086,15.6015625 L110.772461,15.6015625 L110.772461,17.796875 L106.413086,17.796875 L106.413086,22 Z M119.852539,19.9287109 L119.852539,22 L113.15332,22 L113.15332,12.1357422 L115.662109,12.1357422 L115.662109,19.9287109 L119.852539,19.9287109 Z M125.881836,11.8691406 C128.848633,11.8691406 130.735352,13.8583984 130.735352,17.0644531 C130.735352,20.2773438 128.848633,22.2666016 125.881836,22.2666016 C122.901367,22.2666016 121.014648,20.2773438 121.014648,17.0644531 C121.014648,13.8583984 122.921875,11.8691406 125.881836,11.8691406 Z M125.881836,13.9472656 C124.494141,13.9472656 123.571289,15.1640625 123.571289,17.0644531 C123.571289,18.9716797 124.480469,20.1884766 125.881836,20.1884766 C127.269531,20.1884766 128.185547,18.9716797 128.185547,17.0644531 C128.185547,15.1640625 127.262695,13.9472656 125.881836,13.9472656 Z" id="APPSECFLO" fill="#55636B" fill-rule="nonzero"></path>
                <g id="Artboard-Copy-10" fill="#5AD57C">
                    <path d="M23.0047833,22.0047833 L21,20 L29,20 L29,28 L26.1526364,25.1526364 C25.3764152,26.0682053 24.4573204,26.8736481 23.4152349,27.5328597 L18.4349243,30.6833481 C17.1586084,31.4907312 15.5363686,31.5104316 14.2408224,30.7342809 L8.83292907,27.4944581 C5.21456318,25.3267259 3,21.4184323 3,17.2004192 L3,6.95713559 C3,5.2186168 4.12296101,3.67916454 5.77842392,3.1482313 L14.8283493,0.245776537 C15.6260234,-0.0100502199 16.4838854,-0.00898870495 17.280924,0.248811343 L26.2309986,3.14368966 C27.88167,3.67759503 29,5.21468997 29,6.94955915 L29,16.6958095 L29,16 L25,16 L25,7 L16,4 L7,7 L7,16.7185299 C7,19.3933554 8.33680908,21.8912061 10.5623984,23.3749323 L16,27 L21.4376016,23.3749323 C22.0245517,22.9836322 22.549685,22.5217973 23.0047833,22.0047833 Z M13.1715729,16.8284271 L11.7573593,15.4142136 L13.1715729,14 L14.5857864,15.4142136 L18.8284271,11.1715729 L20.2426407,12.5857864 L14.5857864,18.2426407 L13.1715729,16.8284271 Z" id="Combined-Shape"></path>
                </g>
            </g>
        </g>
    </g>
</svg>